<svg width="218" height="40" viewBox="0 0 218 40" fill="none" xmlns="http://www.w3.org/2000/svg">
<path fill-rule="evenodd" clip-rule="evenodd" d="M25.8998 8.54337H20.8497C20.1777 8.54337 19.7961 9.31008 20.2028 9.84328L22.7278 13.1541C23.053 13.5806 23.6967 13.5806 24.0219 13.1541L26.5471 9.84328C26.9538 9.31008 26.572 8.54337 25.8998 8.54337ZM36.7806 8.54337H31.7302C31.058 8.54337 30.6764 9.31008 31.0831 9.84328L33.6084 13.1541C33.9335 13.5806 34.577 13.5806 34.9024 13.1541L37.4274 9.84328C37.8341 9.31008 37.4526 8.54337 36.7806 8.54337ZM54.7802 26.2827C54.9836 26.0453 55.2794 25.9091 55.5916 25.9091H60.9571L60.9578 25.9293C60.9632 26.0887 60.9685 26.2479 60.9685 26.4075C60.9685 33.9159 54.8627 40 47.3281 40H16.2615C12.4964 40 9.08817 38.478 6.61635 36.019C4.14868 33.5597 2.62131 30.1596 2.62131 26.4075C2.62131 24.1268 3.18641 21.9753 4.18237 20.0887C4.6137 19.2716 4.54657 18.2833 3.99343 17.5423L0.206853 12.4674C-0.302109 11.7881 0.186592 10.8185 1.03633 10.8185H5.66385C6.51797 10.8185 7.03524 9.8732 6.56704 9.15732L4.58002 6.1048C4.13232 5.42152 4.62908 4.51323 5.45025 4.51323H9.79046C10.7007 4.51323 11.2041 3.46142 10.6312 2.75649L9.75775 1.68182C9.209 1.00705 9.69111 0 10.5623 0H22.1498H30.2632C33.9958 0 37.375 1.50984 39.8224 3.94841C42.1257 6.24394 43.5999 9.35776 43.7683 12.8153H47.3281C51.0935 12.8153 54.5056 14.3373 56.9733 16.7963C58.9637 18.7797 60.3397 21.3767 60.7994 24.2725H55.5916C54.7978 24.2725 54.0464 24.6179 53.5304 25.221L49.1611 30.3309C48.98 30.543 48.7515 30.5749 48.6317 30.5749H48.6312C48.5106 30.5749 48.2826 30.5432 48.101 30.3311L46.2048 28.1195L46.2035 28.1197L46.2038 28.1193L44.3066 25.9057C43.8616 25.3866 43.2132 25.0889 42.5283 25.0889C41.8423 25.0889 41.1945 25.3866 40.7495 25.9057L38.8518 28.1193L36.9546 30.3323C36.7727 30.5444 36.5443 30.5761 36.4244 30.5761C36.3045 30.5761 36.0758 30.5444 35.8942 30.3326L33.9968 28.1193L32.0993 25.9057C31.6543 25.3866 31.0062 25.0889 30.3205 25.0889C29.6353 25.0889 28.9872 25.3866 28.5422 25.9057L26.6448 28.1193L24.7473 30.3326C24.5657 30.5444 24.3375 30.5761 24.2176 30.5761C24.0973 30.5761 23.869 30.5444 23.6874 30.3326L21.7902 28.1193V28.119L18.7382 24.5591V24.5593L17.399 22.9972C17.668 22.5722 17.8262 22.0704 17.8262 21.5309C17.8262 20.0096 16.5886 18.7766 15.0619 18.7766C13.5355 18.7766 12.2979 20.0096 12.2979 21.5309C12.2979 23.0522 13.5355 24.2852 15.0619 24.2852C15.4493 24.2852 15.8174 24.2052 16.1521 24.0619L17.4893 25.6223L20.5414 29.1823L22.4388 31.3956C22.8836 31.9147 23.5319 32.2126 24.2176 32.2126C24.9028 32.2126 25.5514 31.9147 25.9959 31.3956L27.8934 29.182L29.7908 26.9687C29.9724 26.7571 30.2007 26.7254 30.3205 26.7254C30.4409 26.7254 30.6691 26.7571 30.8507 26.9687L32.7482 29.182L34.6456 31.3956C35.0906 31.9149 35.7389 32.2126 36.4244 32.2126C37.1096 32.2126 37.7582 31.9149 38.2032 31.3956L40.1004 29.182L41.9981 26.9687C42.1797 26.7571 42.4077 26.7254 42.5283 26.7254C42.6481 26.7254 42.8761 26.7571 43.058 26.9687L44.9552 29.182L44.9564 29.181L44.9562 29.1827L46.8521 31.3944C47.2971 31.9137 47.9455 32.2117 48.6307 32.2117H48.6321C49.3183 32.2109 49.9667 31.9122 50.4117 31.3922L54.7802 26.2827ZM72.318 19.9534C72.318 14.7185 76.2198 10.7029 81.6011 10.7029C84.8402 10.7029 87.6965 12.304 89.2522 14.8199L85.7326 16.853C84.9422 15.4806 83.4119 14.6676 81.6011 14.6676C78.4387 14.6676 76.3985 16.7766 76.3985 19.9534C76.3985 23.1305 78.4387 25.2394 81.6011 25.2394C83.4119 25.2394 84.9676 24.4265 85.7326 23.0541L89.2522 25.0869C87.7221 27.6031 84.8656 29.2041 81.6011 29.2041C76.2198 29.2041 72.318 25.1886 72.318 19.9534ZM101.622 24.9345V28.8484H91.1659V11.0587H95.2466V24.9345H101.622ZM110.906 14.6676C113.814 14.6676 116.109 16.7766 116.109 19.9534C116.109 23.1305 113.814 25.2394 110.906 25.2394C107.999 25.2394 105.704 23.1305 105.704 19.9534C105.704 16.7766 107.999 14.6676 110.906 14.6676ZM110.906 10.7029C105.78 10.7029 101.623 14.7185 101.623 19.9534C101.623 25.1886 105.78 29.2041 110.906 29.2041C116.033 29.2041 120.19 25.1886 120.19 19.9534C120.19 14.7185 116.033 10.7029 110.906 10.7029ZM122.231 23.1049V11.0588H126.312V22.749C126.312 24.0959 126.949 25.2394 129.117 25.2394C131.285 25.2394 131.922 24.0959 131.922 22.749V11.0588H136.003V23.1049C136.003 26.9169 133.045 29.2041 129.117 29.2041C125.189 29.2041 122.231 26.9169 122.231 23.1049ZM146.078 14.9724C148.883 14.9724 150.821 16.9038 150.821 19.9534C150.821 23.0032 148.883 24.9346 146.078 24.9346H143.017V14.9724H146.078ZM146.078 28.8482C151 28.8482 154.749 24.9855 154.749 19.9534C154.749 14.9216 151 11.0588 146.078 11.0588H138.936V28.8482H146.078ZM167.884 24.9345V28.8484H155.642V25.6971L162.477 14.9725H155.77V11.0587H167.757V14.2099L160.922 24.9345H167.884ZM174.133 28.8484H170.052V11.0587H174.133V28.8484ZM187.65 24.9345V28.8484H177.194V11.0587H181.274V24.9345H187.65ZM199.893 28.8484V24.9345H193.517V11.0587H189.436V28.8484H199.893ZM211.42 22.2408L209.329 15.7093L207.238 22.2408H211.42ZM212.645 26.0529H206.014L205.121 28.8483H200.658L206.727 11.0586H211.93L218 28.8483H213.537L212.645 26.0529Z" fill="white"/>
</svg>
